<?xml version="1.0" encoding="UTF-8"?>
<!DOCTYPE svg PUBLIC "-//W3C//DTD SVG 1.1//EN" "http://www.w3.org/Graphics/SVG/1.1/DTD/svg11.dtd">
<svg xmlns="http://www.w3.org/2000/svg" version="1.1" width="293px" height="55px" style="shape-rendering:geometricPrecision; text-rendering:geometricPrecision; image-rendering:optimizeQuality; fill-rule:evenodd; clip-rule:evenodd" xmlns:xlink="http://www.w3.org/1999/xlink">
<g><path style="opacity:0.821" fill="#01693A" d="M 108.5,-0.5 C 112.5,-0.5 116.5,-0.5 120.5,-0.5C 123.175,0.355367 125.842,1.52203 128.5,3C 132.833,7.33333 137.167,11.6667 141.5,16C 148,18.9817 154.667,19.3151 161.5,17C 170.591,12.9552 179.591,8.62187 188.5,4C 192.846,2.16398 197.179,0.663976 201.5,-0.5C 207.167,-0.5 212.833,-0.5 218.5,-0.5C 226.304,2.39725 233.971,5.89725 241.5,10C 257.544,14.6981 273.544,14.5314 289.5,9.5C 289.519,11.0603 289.852,12.5603 290.5,14C 290.095,14.9454 289.428,15.6121 288.5,16C 274.02,20.8923 259.353,21.559 244.5,18C 236.049,14.6082 227.716,10.9415 219.5,7C 209.816,4.56853 200.482,5.56853 191.5,10C 182.591,14.6219 173.591,18.9552 164.5,23C 148.454,28.4292 135.787,24.0959 126.5,10C 118.772,4.41039 110.772,4.07705 102.5,9C 94.9955,13.5865 87.3288,17.9199 79.5,22C 70.9384,25.9806 62.2717,26.3139 53.5,23C 47.675,20.2547 42.0084,17.2547 36.5,14C 23.0491,11.4755 13.2157,16.3088 7,28.5C 6.50999,29.7932 6.34332,31.1266 6.5,32.5C 4.05035,32.702 1.71702,32.3686 -0.5,31.5C -0.5,30.5 -0.5,29.5 -0.5,28.5C 6.6191,12.6002 18.9524,5.43357 36.5,7C 43.147,10.2989 49.8137,13.6322 56.5,17C 63.2932,19.1873 69.9599,18.854 76.5,16C 86.862,9.65392 97.5287,4.15392 108.5,-0.5 Z"/></g>
<g><path style="opacity:0.821" fill="#01693A" d="M 292.5,34.5 C 292.5,35.5 292.5,36.5 292.5,37.5C 268.672,45.6884 246.005,43.1884 224.5,30C 215.839,26.6677 207.172,26.6677 198.5,30C 188.68,34.4102 179.014,39.0769 169.5,44C 152.534,50.9041 138.867,46.9041 128.5,32C 120.772,26.4104 112.772,26.0771 104.5,31C 96.9955,35.5865 89.3288,39.9199 81.5,44C 72.9044,47.6621 64.2378,47.9954 55.5,45C 49.675,42.2547 44.0084,39.2547 38.5,36C 26.512,33.5747 17.012,37.4081 10,47.5C 9.25639,49.8997 8.42305,52.233 7.5,54.5C 5.83333,54.5 4.16667,54.5 2.5,54.5C 2.41817,46.5 5.7515,40 12.5,35C 20.344,29.5394 29.0107,27.5394 38.5,29C 45.147,32.2989 51.8137,35.6322 58.5,39C 65.2779,41.1419 71.9446,40.8086 78.5,38C 87.6018,32.5642 96.9351,27.5642 106.5,23C 114.782,20.579 122.782,21.2457 130.5,25C 134.833,29.3333 139.167,33.6667 143.5,38C 151.125,41.2195 158.791,41.2195 166.5,38C 178.241,31.2964 190.574,25.963 203.5,22C 210.567,21.1609 217.567,21.4942 224.5,23C 230.954,25.727 237.288,28.727 243.5,32C 253.586,35.2888 263.919,36.2888 274.5,35C 280.218,33.9862 285.885,32.8195 291.5,31.5C 291.263,32.791 291.596,33.791 292.5,34.5 Z"/></g>
</svg>
