<svg xmlns="http://www.w3.org/2000/svg" height="512" viewBox="0 0 512 512" width="512"><g><circle cx="256" cy="256" r="256"></circle><g><g fill="#fff"><g><path d="m135.889 195.212c4.547-5.687 7.632-13.323 6.819-21.127-6.656.331-14.778 4.391-19.481 10.083-4.222 4.874-7.959 12.83-6.985 20.306 7.472.648 14.937-3.734 19.647-9.262"></path><path d="m142.623 205.934c-10.851-.646-20.076 6.158-25.258 6.158-5.185 0-13.12-5.833-21.702-5.675-11.171.164-21.535 6.48-27.204 16.525-11.659 20.095-3.077 49.904 8.261 66.27 5.506 8.097 12.142 17.013 20.885 16.692 8.261-.324 11.499-5.349 21.541-5.349 10.034 0 12.951 5.349 21.696 5.187 9.069-.162 14.738-8.101 20.244-16.206 6.316-9.23 8.902-18.143 9.065-18.632-.163-.162-17.487-6.808-17.648-26.736-.164-16.686 13.601-24.623 14.249-25.115-7.773-11.497-19.918-12.793-24.129-13.119"></path></g><g><path d="m237.103 183.352c23.584 0 40.006 16.256 40.006 39.925 0 23.753-16.76 40.094-40.598 40.094h-26.111v41.525h-18.866v-121.544zm-26.703 64.183h21.647c16.426 0 25.774-8.843 25.774-24.174 0-15.329-9.348-24.089-25.689-24.089h-21.732z"></path><path d="m282.038 279.712c0-15.499 11.876-25.017 32.935-26.196l24.257-1.431v-6.822c0-9.855-6.655-15.751-17.771-15.751-10.531 0-17.101 5.053-18.7 12.971h-17.183c1.011-16.005 14.655-27.797 36.555-27.797 21.478 0 35.207 11.371 35.207 29.143v61.067h-17.436v-14.572h-.419c-5.137 9.855-16.341 16.088-27.964 16.088-17.351 0-29.481-10.781-29.481-26.7zm57.192-8.002v-6.991l-21.816 1.347c-10.866.759-17.014 5.56-17.014 13.14 0 7.748 6.401 12.802 16.172 12.802 12.719.001 22.658-8.759 22.658-20.298z"></path><path d="m373.801 337.494v-14.741c1.345.336 4.377.336 5.894.336 8.422 0 12.971-3.537 15.75-12.634 0-.169 1.602-5.391 1.602-5.475l-32.006-88.695h19.707l22.408 72.102h.335l22.408-72.102h19.204l-33.189 93.242c-7.578 21.48-16.338 28.386-34.7 28.386-1.519.002-6.068-.168-7.413-.419z"></path></g></g></g></g></svg>