<svg xmlns="http://www.w3.org/2000/svg" height="512" viewBox="0 0 64 64" width="512"><g id="Mobile_Shopping-Payment_Method-Shopping_Bag-Mobile-Payment" data-name="Mobile Shopping-Payment Method-Shopping Bag-Mobile-Payment"><path d="m46 9v38a1.087 1.087 0 0 1 -.01.18 5.993 5.993 0 0 1 -5.99 5.82h-22a6.007 6.007 0 0 1 -5.88-4.81 5.787 5.787 0 0 1 -.12-1.19v-38a6 6 0 0 1 6-6h22a6 6 0 0 1 6 6z" fill="#5aaae7"></path><g fill="#3d9ae2"><path d="m33.4 52.04a2.945 2.945 0 0 1 2.19.96h-4.38a2.692 2.692 0 0 1 .69-.56 3.012 3.012 0 0 1 1.5-.4z"></path><path d="m45.99 47.18a5.993 5.993 0 0 1 -5.99 5.82h-2v-13a3 3 0 0 1 6 0v10a2.992 2.992 0 0 1 1.99-2.82z"></path><path d="m24.5 44.21-4.5 7.79.6 1h-2.6a5.892 5.892 0 0 1 -3-.82v-3.52l4.3-7.45a3 3 0 0 1 5.2 3z"></path></g><path d="m31 45a2.006 2.006 0 0 1 2 2 2.015 2.015 0 0 1 -2 2h-4a2.006 2.006 0 0 1 -2-2 2.015 2.015 0 0 1 2-2z" fill="#e6e7e8"></path><path d="m22.9 40.71a3 3 0 0 0 -5.6-1.5l-5.18 8.98a5.787 5.787 0 0 1 -.12-1.19v-18.96a4 4 0 0 0 -3.07 2.28l-4.01 8.69a9.919 9.919 0 0 0 -.92 4.19v18.8l17-.01v-5.34a6.024 6.024 0 0 0 -.86-3.09l-.34-.56-1.8-3 4.5-7.79a3.012 3.012 0 0 0 .4-1.5z" fill="#ffc477"></path><path d="m34 22h-10v12a2.006 2.006 0 0 0 2 2h10a2.006 2.006 0 0 0 2-2v-12z" fill="#3d9ae2"></path><path d="m36 30v2a2.006 2.006 0 0 1 -2 2h-10a2.006 2.006 0 0 1 -2-2v-2z" fill="#e6e7e8"></path><path d="m32 20h4v10h-14v-10h4z" fill="#00ccb3"></path><path d="m59.12 47.88a3 3 0 0 0 -5.12 2.12v-1a3 3 0 0 0 -6 0v-1a2.993 2.993 0 0 0 -.88-2.12 2.838 2.838 0 0 0 -1.12-.7 2.772 2.772 0 0 0 -1-.18 3 3 0 0 0 -3 3v-10a3 3 0 0 0 -6 0v17l-1.16-2-.84-1.46a3.006 3.006 0 0 0 -4.1-1.1 3.038 3.038 0 0 0 -1.5 2.56 2.981 2.981 0 0 0 .4 1.54l4.31 7.46h26.89v-12a2.993 2.993 0 0 0 -.88-2.12z" fill="#ffc477"></path><path d="m21 6h2v2h-2z"></path><path d="m25 6h8v2h-8z"></path><path d="m57 46a3.94 3.94 0 0 0 -2.57.94 4.012 4.012 0 0 0 -3.43-1.94 3.94 3.94 0 0 0 -2.57.94 4 4 0 0 0 -1.43-1.4v-35.54a7.008 7.008 0 0 0 -7-7h-22a7.008 7.008 0 0 0 -7 7v18.26a4.983 4.983 0 0 0 -2.98 2.64l-4.01 8.69a10.843 10.843 0 0 0 -1.01 4.61v18.8h2v-18.8a8.863 8.863 0 0 1 .83-3.77l4.01-8.69a2.911 2.911 0 0 1 1.16-1.27v17.53a6.5 6.5 0 0 0 .08.99l-.64 1.11 1.73 1 6-10.39a2 2 0 0 1 1.21-.94 2.06 2.06 0 0 1 1.52.2 2.012 2.012 0 0 1 .73 2.74l-4.5 7.79a1.031 1.031 0 0 0 .01 1.02l2.15 3.56a5.074 5.074 0 0 1 .71 2.57v5.34h2v-5.34a7.078 7.078 0 0 0 -.53-2.65h6.07a4.287 4.287 0 0 0 .4 1.04l4.31 7.46 1.73-1-4.31-7.46a2 2 0 1 1 3.46-2l2 3.46a1.022 1.022 0 0 0 1.13.47 1 1 0 0 0 .74-.97v-17a2 2 0 0 1 4 0v14a1 1 0 0 0 2 0v-4a2 2 0 0 1 4 0v4a1 1 0 0 0 2 0v-3a2 2 0 0 1 4 0v3a1 1 0 0 0 2 0v-2a2 2 0 0 1 4 0v12h2v-12a4 4 0 0 0 -4-4zm-26 2h-4a1 1 0 0 1 0-2h4a1 1 0 0 1 0 2zm14-4a3.989 3.989 0 0 0 -2 .54v-6.54a4 4 0 0 0 -8 0v13.27l-.13-.23a3.933 3.933 0 0 0 -2.01-1.71 2.968 2.968 0 0 0 1.14-2.33 3.009 3.009 0 0 0 -3-3h-4a3 3 0 0 0 0 6h1.81a3.962 3.962 0 0 0 -1.27 2h-7.17l-1.21-2.01 4.21-7.28a4 4 0 1 0 -6.93-4l-3.44 5.95v-35.66a5 5 0 0 1 5-5h22a5 5 0 0 1 5 5z"></path><path d="m36 19h-3v-1a4 4 0 0 0 -8 0v1h-3a1 1 0 0 0 -1 1v12a3.009 3.009 0 0 0 3 3h10a3.009 3.009 0 0 0 3-3v-12a1 1 0 0 0 -1-1zm-9-1a2 2 0 0 1 4 0v1h-4zm8 14a1 1 0 0 1 -1 1h-10a1 1 0 0 1 -1-1v-1h12zm0-3h-12v-8h2v2h2v-2h4v2h2v-2h2z"></path></g></svg>