<svg xmlns="http://www.w3.org/2000/svg" xmlns:xlink="http://www.w3.org/1999/xlink" x="0px" y="0px" viewBox="0 0 512 512" style="enable-background:new 0 0 512 512;" xml:space="preserve"><path style="fill:#CAE8F9;" d="M256,0C115.3,0,0,115.3,0,256s115.3,256,256,256s256-115.3,256-256S396.7,0,256,0z"></path><path style="fill:#B7E0F6;" d="M512,256c0,140.7-115.3,256-256,256V0C396.7,0,512,115.3,512,256z"></path><path style="fill:#08469C;" d="M362.44,154.08L256,200.53L232,211l-47.71,150H141c-4.41,0-8.6-1.93-11.45-5.3 c-2.85-3.37-4.08-7.81-3.35-12.16l40.01-240C167.41,96.3,173.66,91,181,91h60c4.81,0,9.84-0.07,15-0.13 c33.57-0.39,72.64-0.4,92.21,21.34C357.16,122.15,361.7,135.89,362.44,154.08z"></path><path style="fill:#063E8B;" d="M362.44,154.08L256,200.53V90.87c33.57-0.39,72.64-0.4,92.21,21.34 C357.16,122.15,361.7,135.89,362.44,154.08z"></path><path style="fill:#17ACE8;" d="M399.212,172.211c-8.954-9.946-22.053-15.24-36.773-18.127L228.856,255.106L184.29,361l-7.09,42.539 c-0.732,4.351,0.498,8.789,3.354,12.158c2.842,3.369,7.031,5.303,11.44,5.303h60c7.339,0,13.594-5.303,14.795-12.539l13.066-78.354 c62.212-0.337,123.032-5.801,132.7-91.523C416.073,207.309,411.825,186.215,399.212,172.211z"></path><path style="fill:#1689FC;" d="M362.439,154.083L256,234.578V420.28c5.486-1.538,9.818-5.966,10.789-11.819l13.066-78.354 c62.212-0.337,123.032-5.801,132.7-91.523c3.516-31.274-0.732-52.368-13.345-66.372C390.26,162.265,377.157,156.971,362.439,154.083 z"></path><path style="fill:#0F60CF;" d="M361.56,178.58c-8.25,73.15-53.74,87.86-105.56,90.81c-8.91,0.51-18.01,0.67-27.14,0.72l-13.07,78.35 C214.59,355.7,208.33,361,201,361h-16.71l32.92-197.46c1.2-7.24,7.45-12.54,14.79-12.54h60c21.79,0,48.04-1.31,70.44,3.08 C362.74,161.52,362.58,169.51,361.56,178.58z"></path><path style="fill:#0A4EAF;" d="M361.56,178.58c-8.25,73.15-53.74,87.86-105.56,90.81V151h36c21.79,0,48.04-1.31,70.44,3.08 C362.74,161.52,362.58,169.51,361.56,178.58z"></path><g></g><g></g><g></g><g></g><g></g><g></g><g></g><g></g><g></g><g></g><g></g><g></g><g></g><g></g><g></g></svg>