<svg id="Layer_1" enable-background="new 0 0 100 100" height="102" viewBox="0 0 100 100" width="102" xmlns="http://www.w3.org/2000/svg"><g><g><path d="m91.764 68.669c-.417 0-.807-.264-.947-.681-.177-.523.104-1.09.628-1.267.87-.293 1.345-.48 1.358-.486.517-.205 1.095.048 1.298.561.204.513-.047 1.094-.56 1.298 0 0-.511.203-1.458.523-.105.035-.214.052-.319.052z"/></g><g><path d="m90.819 67.99c-.18-.52.101-1.09.62-1.27.53-.17 1.091.11 1.271.63.18.52-.101 1.09-.63 1.27-.101.03-.21.05-.32.05-.41 0-.8-.26-.941-.68z"/></g><g><path d="m67.85 72.51c-.55 0-1-.44-1-.99 0-.56.45-1 1-1 1.021-.01 2.03-.03 3-.07.57-.04 1.021.41 1.04.96v.05c-.01.53-.43.96-.96.99-.98.04-2.02.06-3.08.06zm-3.04-.06c-.01 0-.029 0-.04 0-1.01-.04-2.05-.11-3.08-.2-.52-.04-.92-.49-.92-1 0-.03.011-.06.011-.08.05-.55.52-.96 1.079-.91.99.09 2 .15 2.99.19.53.03.96.46.96.99v.06c-.02.53-.46.95-1 .95zm9.11-.19c-.521 0-.95-.41-.99-.92-.01-.03-.01-.05-.01-.08 0-.52.399-.96.92-1 .99-.08 2-.18 2.99-.3.54-.07 1.04.33 1.109.87 0 .04.011.08.011.12-.011.49-.36.9-.841.98l-.04.01c-.02 0-.05.01-.069.01-.99.12-2 .22-3 .3-.021.01-.05.01-.08.01zm-15.16-.34c-.05 0-.1 0-.14-.01-1.03-.14-2.051-.3-3.03-.48l-.01-.1v.05l-.011.05c-.479-.09-.819-.51-.819-.99 0-.06.01-.12.02-.18.09-.53.63-.9 1.16-.8.96.18 1.96.33 2.96.47.49.07.87.5.86 1 0 .04 0 .08-.01.13-.06.49-.49.86-.98.86zm21.2-.4c-.49 0-.91-.35-.99-.84-.01-.06-.01-.1-.01-.15-.01-.49.35-.92.84-.99.96-.16 1.95-.34 2.95-.54.54-.1 1.08.26 1.18.79.01.07.021.13.021.2 0 .47-.341.88-.801.97-.02.01-.029.01-.029.01-1 .2-2.011.38-3 .54-.061.01-.111.01-.161.01zm-27.18-.7c-.08 0-.16-.01-.24-.03-1.01-.24-2.021-.51-2.98-.79-.43-.13-.729-.53-.72-.97 0-.09.01-.18.04-.27.15-.52.72-.84 1.24-.68.949.28 1.93.54 2.89.76.45.11.771.51.771.98 0 .08-.011.15-.03.23-.111.45-.511.77-.971.77zm33.14-.49c-.47 0-.86-.31-.97-.77-.021-.07-.03-.14-.03-.22-.01-.47.31-.87.77-.98.99-.24 1.96-.49 2.9-.76.51-.14 1.09.17 1.229.69.08.26.051.53-.09.76-.12.23-.34.4-.6.48-.97.27-1.97.53-2.98.77-.069.02-.149.03-.229.03zm-38.981-1.22c-.09 0-.17-.02-.26-.04l-.07-.02c-.02-.01-.04-.01-.06-.02-.95-.34-1.9-.7-2.82-1.09-.38-.15-.62-.51-.62-.91 0-.14.021-.27.07-.39.21-.5.811-.75 1.311-.54.92.38 1.85.73 2.79 1.06.39.14.659.52.659.94.011.11-.01.23-.05.34-.139.4-.519.67-.95.67zm-5.609-2.33c-.15 0-.29-.04-.431-.1-.92-.44-1.84-.92-2.75-1.42-.319-.18-.52-.52-.51-.89 0-.16.04-.33.12-.47.26-.47.89-.65 1.36-.39.85.47 1.739.93 2.649 1.37.351.17.561.51.561.9 0 .15-.03.3-.101.43-.159.35-.508.57-.898.57zm-5.31-2.94c-.189 0-.37-.05-.529-.15-.881-.56-1.74-1.13-2.57-1.72-.271-.19-.43-.5-.43-.82 0-.21.069-.41.189-.58.3-.43.96-.54 1.39-.24.78.56 1.591 1.1 2.48 1.66.29.18.47.5.47.84 0 .19-.05.38-.149.54-.191.29-.512.47-.851.47zm-4.96-3.52c-.22 0-.43-.07-.6-.2l-.021-.01c-.01-.01-.029-.03-.04-.04-.77-.61-1.54-1.26-2.279-1.92-.011 0-.021-.01-.04-.02l-.101-.09h.021c-.17-.19-.26-.43-.26-.68 0-.24.09-.47.25-.65.35-.4 1.02-.44 1.409-.09.74.65 1.511 1.3 2.29 1.92l.11.09h-.02c.189.19.289.44.279.7 0 .23-.069.44-.21.62-.188.24-.478.37-.788.37zm-4.54-4.02c-.26 0-.51-.11-.7-.29-.699-.69-1.43-1.44-2.149-2.22-.16-.18-.26-.42-.26-.67 0-.29.12-.56.319-.75.391-.35 1.061-.33 1.42.06.66.72 1.351 1.44 2.061 2.14l.01.01c.19.19.3.44.3.71s-.1.52-.29.71c-.191.19-.441.3-.711.3zm-4.11-4.48c-.301 0-.58-.13-.771-.36-.66-.79-1.31-1.61-1.92-2.41-.13-.17-.2-.38-.2-.59 0-.32.141-.62.4-.81.43-.32 1.07-.23 1.399.19.58.77 1.181 1.52 1.78 2.24l.08.1c.15.18.23.41.23.64 0 .3-.13.58-.36.77-.178.15-.399.23-.638.23zm-3.67-4.83c-.33 0-.641-.16-.82-.43-.61-.89-1.17-1.73-1.7-2.57-.11-.17-.16-.35-.16-.54.01-.35.181-.66.471-.84.449-.29 1.09-.14 1.38.31.54.85 1.09 1.69 1.649 2.5.12.16.181.35.181.55 0 .34-.16.65-.431.84-.17.11-.371.18-.57.18zm-3.25-5.14c-.351 0-.69-.19-.86-.5-.53-.9-1.03-1.81-1.49-2.69-.08-.14-.12-.31-.12-.47 0-.37.21-.7.53-.88.47-.25 1.1-.05 1.35.42.49.91.98 1.8 1.46 2.62.08.15.131.33.131.5 0 .36-.19.69-.5.87-.151.09-.321.13-.501.13zm-2.85-5.36c-.39 0-.729-.22-.899-.56-.471-.97-.891-1.88-1.301-2.79-.05-.13-.08-.27-.08-.41 0-.39.23-.75.591-.91.489-.22 1.1.02 1.319.51.431.95.851 1.86 1.271 2.72.069.14.1.28.1.43 0 .39-.21.74-.56.91-.142.06-.291.1-.441.1zm-2.48-5.55c-.41 0-.771-.24-.92-.62 0 0-.021-.04-.021-.05h-.009c-.19-.51.05-1.09.55-1.29.51-.21 1.1.04 1.31.54l.011.04c.06.13.08.26.08.39 0 .4-.25.76-.62.92-.121.05-.251.07-.381.07z"/></g><g><path d="m10.141 30.893c-.394 0-.767-.234-.925-.621-.19-.463-.379-.932-.565-1.406-.202-.514.051-1.094.564-1.297s1.095.05 1.297.564c.183.464.367.924.554 1.378.21.511-.034 1.095-.545 1.305-.125.053-.253.077-.38.077z"/></g></g><g><path d="m7.615 35.826c-.075 0-.151-.008-.228-.026-.537-.125-.872-.663-.746-1.2l1.967-8.446 7.127 4.772c.459.308.582.929.274 1.387-.309.459-.929.581-1.388.275l-4.723-3.163-1.311 5.627c-.107.463-.518.774-.972.774z"/></g></svg>