<?xml version="1.0" encoding="UTF-8"?>
<!DOCTYPE svg PUBLIC "-//W3C//DTD SVG 1.1//EN" "http://www.w3.org/Graphics/SVG/1.1/DTD/svg11.dtd">
<svg xmlns="http://www.w3.org/2000/svg" version="1.1" width="1324px" height="573px" style="shape-rendering:geometricPrecision; text-rendering:geometricPrecision; image-rendering:optimizeQuality; fill-rule:evenodd; clip-rule:evenodd" xmlns:xlink="http://www.w3.org/1999/xlink">
<g><path style="opacity:0.97" fill="#040707" d="M 343.5,-0.5 C 372.167,-0.5 400.833,-0.5 429.5,-0.5C 449.056,0.463175 468.389,3.62984 487.5,9C 491.83,14.1592 491.497,18.8258 486.5,23C 477.59,24.9056 468.59,26.2389 459.5,27C 427.155,29.0215 394.822,31.0215 362.5,33C 352.195,34.1527 343.528,38.486 336.5,46C 321.921,52.4623 312.421,47.9623 308,32.5C 305.789,22.4295 308.956,14.5962 317.5,9C 325.747,4.3102 334.414,1.14353 343.5,-0.5 Z"/></g>
<g><path style="opacity:0.964" fill="#040707" d="M 588.5,5.5 C 606.578,7.26821 624.244,11.1015 641.5,17C 704.399,37.0129 761.899,66.8462 814,106.5C 817.656,114.851 815.156,120.184 806.5,122.5C 756.632,94.238 704.299,71.4047 649.5,54C 627.961,47.532 606.294,41.532 584.5,36C 577.915,31.5316 575.748,25.365 578,17.5C 579.936,12.0678 583.436,8.0678 588.5,5.5 Z"/></g>
<g><path style="opacity:0.971" fill="#040707" d="M -0.5,118.5 C -0.5,113.5 -0.5,108.5 -0.5,103.5C 6.63378,93.4118 15.9671,85.9118 27.5,81C 82.2078,62.8751 136.874,44.5418 191.5,26C 202.351,24.6754 208.351,29.5088 209.5,40.5C 209.02,44.2932 207.353,47.4599 204.5,50C 156.978,72.595 108.645,93.2617 59.5,112C 47.9557,117.268 37.6224,124.268 28.5,133C 18.654,136.683 10.4873,134.516 4,126.5C 2.60349,123.646 1.10349,120.98 -0.5,118.5 Z"/></g>
<g><path style="opacity:0.962" fill="#040707" d="M 881.5,147.5 C 896.987,149.385 911.321,154.552 924.5,163C 970.532,194.01 1013.37,229.176 1053,268.5C 1055.28,275.308 1053.12,280.141 1046.5,283C 1043.37,283.79 1040.37,283.457 1037.5,282C 996.622,247.163 951.955,217.83 903.5,194C 891.502,187.413 880.669,179.247 871,169.5C 867.31,158.551 870.81,151.218 881.5,147.5 Z"/></g>
<g><path style="opacity:0.974" fill="#040707" d="M 1323.5,334.5 C 1323.5,337.833 1323.5,341.167 1323.5,344.5C 1322.36,347.077 1320.53,349.077 1318,350.5C 1313.51,373.606 1308.51,396.606 1303,419.5C 1293.31,454.245 1284.64,489.245 1277,524.5C 1273.28,540.774 1265.78,554.941 1254.5,567C 1251.23,569.13 1247.9,570.963 1244.5,572.5C 1237.5,572.5 1230.5,572.5 1223.5,572.5C 1214.49,568.825 1205.82,564.325 1197.5,559C 1155.1,523.309 1111.43,489.309 1066.5,457C 1062.8,452.965 1058.8,449.298 1054.5,446C 1023.63,451.125 1010.79,438.292 1016,407.5C 1022.9,394.468 1033.73,388.968 1048.5,391C 1054.25,391.873 1059.58,393.873 1064.5,397C 1081.2,407.012 1097.2,418.012 1112.5,430C 1144.02,456.355 1175.69,482.522 1207.5,508.5C 1207.83,508.167 1208.17,507.833 1208.5,507.5C 1181.81,450.969 1145.64,401.302 1100,358.5C 1093.18,346.29 1096.02,337.123 1108.5,331C 1115.18,329.481 1121.18,330.814 1126.5,335C 1177.61,383.67 1214.77,441.504 1238,508.5C 1259.52,452.263 1278.86,395.263 1296,337.5C 1300.92,328.951 1308.09,325.784 1317.5,328C 1319.73,330.063 1321.73,332.229 1323.5,334.5 Z"/></g>
</svg>
