<svg xmlns="http://www.w3.org/2000/svg" id="Layer_1" height="512" viewBox="0 0 48 48" width="512" data-name="Layer 1"><path d="m24 2.5a10.011 10.011 0 0 0 -10 10v7.5a1.5 1.5 0 0 0 1.5 1.5h17a1.5 1.5 0 0 0 1.5-1.5v-7.5a10.011 10.011 0 0 0 -10-10zm0 3a7.009 7.009 0 0 1 7 7v6h-14v-6a7.009 7.009 0 0 1 7-7z"></path><path d="m37.144 18.527a63.128 63.128 0 0 1 -11.844-4.274 2.982 2.982 0 0 0 -2.6 0 63.128 63.128 0 0 1 -11.842 4.274 3.015 3.015 0 0 0 -2.285 3.218l.9 8.85a11 11 0 0 0 4.6 7.877l8.2 5.786a3 3 0 0 0 3.459 0l8.2-5.787a11 11 0 0 0 4.6-7.877l.9-8.85a3.011 3.011 0 0 0 -2.288-3.217z" fill="#ffd731"></path><circle cx="24" cy="27" r="2.5"></circle><path d="m24 32a1 1 0 0 1 -1-1v-2a1 1 0 0 1 2 0v2a1 1 0 0 1 -1 1z"></path><path d="m24 44.807a3 3 0 0 1 -1.73-.548l-8.2-5.788a11 11 0 0 1 -4.6-7.875l-.9-8.852a3.011 3.011 0 0 1 2.286-3.216 62.983 62.983 0 0 0 11.844-4.277 3 3 0 0 1 2.6 0 60.9 60.9 0 0 0 13.509 4.649 1 1 0 1 1 -.393 1.96 63.017 63.017 0 0 1 -13.982-4.8 1 1 0 0 0 -.869 0 65.231 65.231 0 0 1 -12.24 4.417 1 1 0 0 0 -.763 1.07l.9 8.852a9 9 0 0 0 3.764 6.443l8.2 5.788a1 1 0 0 0 1.152 0l8.2-5.788a9 9 0 0 0 3.764-6.443l.519-5.106a1 1 0 0 1 1.99.2l-.522 5.107a11 11 0 0 1 -4.6 7.875l-8.2 5.788a3 3 0 0 1 -1.729.544z" fill="#232323"></path></svg>