<svg xmlns="http://www.w3.org/2000/svg" height="512" viewBox="0 0 128 128" width="512"><g><g><g><path d="m37 51.4h54v39.6h-54z" fill="#ffd92e"></path><path d="m37 37.002h54v14.398h-54z" fill="#fcbe00"></path><path d="m72.4 37.003v25.527l-8.4-8.4-8.4 8.4v-25.53z" fill="#fc9f02"></path><path d="m43.6 77.2h12v7.2h-12z" fill="#e6f8fc"></path></g><path d="m80 13.449h-16v-6.449l-10 10 10 10v-6.449h16z" fill="#fa465f"></path><path d="m48 114.551h16v6.449l10-10-10-10v6.449h-16z" fill="#99baff"></path></g><g><path d="m62.763 28.237a1.749 1.749 0 0 0 2.987-1.237v-4.7h14.25a1.75 1.75 0 0 0 0-3.5h-16a1.75 1.75 0 0 0 -1.75 1.75v2.223l-5.775-5.773 5.775-5.775v2.223a1.75 1.75 0 0 0 1.75 1.752h16a1.75 1.75 0 0 0 0-3.5h-14.25v-4.7a1.749 1.749 0 0 0 -2.987-1.237l-10 10a1.748 1.748 0 0 0 0 2.474z"></path><path d="m86.665 15.2h2.669a1.75 1.75 0 0 0 0-3.5h-2.669a1.75 1.75 0 0 0 0 3.5z"></path><path d="m65.237 99.763a1.749 1.749 0 0 0 -2.987 1.237v4.7h-14.25a1.75 1.75 0 1 0 0 3.5h16a1.75 1.75 0 0 0 1.75-1.75v-2.223l5.775 5.773-5.775 5.775v-2.223a1.75 1.75 0 0 0 -1.75-1.752h-16a1.75 1.75 0 0 0 0 3.5h14.25v4.7a1.749 1.749 0 0 0 2.987 1.237l10-10a1.748 1.748 0 0 0 0-2.474z"></path><path d="m41.335 112.8h-2.669a1.75 1.75 0 0 0 0 3.5h2.669a1.75 1.75 0 0 0 0-3.5z"></path><path d="m91 67.765a1.75 1.75 0 0 0 -1.75 1.75v4.97a1.75 1.75 0 1 0 3.5 0v-4.97a1.75 1.75 0 0 0 -1.75-1.75z"></path><path d="m91 35.25h-54a1.75 1.75 0 0 0 -1.75 1.75v21.318a1.75 1.75 0 0 0 3.5 0v-5.168h15.1v9.38a1.75 1.75 0 0 0 2.987 1.238l7.163-7.168 7.163 7.164a1.75 1.75 0 0 0 2.987-1.234v-9.38h15.1v7.25a1.75 1.75 0 0 0 3.5 0v-23.4a1.75 1.75 0 0 0 -1.75-1.75zm-52.25 14.4v-10.9h15.1v10.9zm26.487 3.243a1.8 1.8 0 0 0 -2.474 0l-5.413 5.413v-19.556h13.3v19.556zm8.913-3.243v-10.9h15.1v10.9z"></path><path d="m91 81.852a1.75 1.75 0 0 0 -1.75 1.75v5.648h-50.5v-21.815a1.75 1.75 0 0 0 -3.5 0v23.565a1.75 1.75 0 0 0 1.75 1.75h54a1.75 1.75 0 0 0 1.75-1.75v-7.4a1.75 1.75 0 0 0 -1.75-1.748z"></path><path d="m55.6 86.15a1.75 1.75 0 0 0 1.75-1.75v-7.2a1.75 1.75 0 0 0 -1.75-1.75h-12a1.75 1.75 0 0 0 -1.75 1.75v7.2a1.75 1.75 0 0 0 1.75 1.75zm-10.25-7.2h8.5v3.7h-8.5z"></path></g></g></svg>