<svg xmlns="http://www.w3.org/2000/svg" id="Layer_1" viewBox="0 0 512 512" data-name="Layer 1"><g fill-rule="evenodd"><path d="m367.009 49.052h20.491a17.588 17.588 0 0 1 17.545 17.548v150.224c5.521 1.324 10.9 4.974 16.279 8.624 3.951 2.681 7.9 5.363 11.283 6.6 8.972 3.252-1.389 28.323-3.68 33.985a141.694 141.694 0 0 1 -10.639 20.992 16.1 16.1 0 0 1 6.181 25.683c17.882 19.666 33.229 46.525 42.18 72.106 9.434 26.962 11.8 52.909 2.793 68.506-5.748 9.957-14.693 18.105-25.7 24.461-19.771 11.415-46.413 17.109-72.963 17.1s-53.186-5.73-72.938-17.135a76.591 76.591 0 0 1 -17.927-14h-39.3v16.642a15.651 15.651 0 0 1 -15.614 15.612h-112a15.651 15.651 0 0 1 -15.62-15.619v-16.642c-6.847 0-11.911.227-17.288-5.15a17.5 17.5 0 0 1 -5.151-12.4v-15.5h-20.487a17.583 17.583 0 0 1 -17.548-17.549v-333.74a5.481 5.481 0 0 1 1.551-3.827l48.772-57.353a5.489 5.489 0 0 1 4.413-2.22h257.819a17.587 17.587 0 0 1 17.548 17.549z" fill="#333"></path><path d="m240.54 347.989h51.337a218.253 218.253 0 0 1 25.551-34.032 16.1 16.1 0 0 1 5.684-27.206 136.227 136.227 0 0 1 -11.987-22.595c-4.127-10.059-6.633-20.177-6.686-29.212a5.474 5.474 0 0 1 5.239-5.491s9.807-5.654 10.393-6.136c5.366-4.408 10.732-8.816 18.017-8.629 6.1.157 11.988 3.708 17.854 7.64v-188.779a6.59 6.59 0 0 0 -6.556-6.556h-252.322v40.359a17.583 17.583 0 0 1 -17.548 17.548h-31.692v328.24a6.588 6.588 0 0 0 6.556 6.56h42.926v-110.03a15.651 15.651 0 0 1 15.618-15.619h112a15.651 15.651 0 0 1 15.616 15.619v.763h51.39a5.5 5.5 0 0 1 0 10.992h-51.39zm-154.5-64.12a5.5 5.5 0 1 1 0-10.992h215.549a5.5 5.5 0 1 1 0 10.992zm0-37.556a5.5 5.5 0 0 1 0-10.992h199.408a5.5 5.5 0 1 1 0 10.992zm115.843-177.127a72.564 72.564 0 1 1 -51.308 21.254 72.334 72.334 0 0 1 51.308-21.254z" fill="#fff"></path><path d="m224.921 305.044h-112a4.652 4.652 0 0 0 -4.626 4.626v170.711a4.654 4.654 0 0 0 4.626 4.626h112a4.653 4.653 0 0 0 4.626-4.626v-170.711a4.652 4.652 0 0 0 -4.626-4.626zm-28.96 162.7h-5.5v-10.996h22.29v10.992zm0-32.445h-5.5v-10.999h22.29v11zm-32.687 32.441h-5.5v-10.992h22.29v10.992zm-32.687 0h-5.5v-10.992h22.29v10.992zm32.687-32.44h-5.5v-11h22.29v11zm-32.687 0h-5.5v-11h22.29v11zm65.374-32.446h-5.5v-10.998h22.29v10.993zm-32.687 0h-5.5v-10.998h22.29v10.993zm-32.687 0h-5.5v-10.998h22.29v10.993zm-6.025-84.806h87.081a5.5 5.5 0 0 1 5.5 5.5v38.949a5.5 5.5 0 0 1 -5.5 5.5h-87.081a5.5 5.5 0 0 1 -5.5-5.5v-38.958a5.5 5.5 0 0 1 5.5-5.496z" fill="#b3b3b3"></path><path d="m400.446 227.269c-4.146.739-7.153 3.518-10.331 6.129-5.366 4.409-10.733 8.817-18.017 8.631-4.432-.114-8.754-2.021-13.038-4.565a67.311 67.311 0 0 1 -7.037-4.576c-5.273-3.578-10.546-7.157-14.193-7.251-3.229-.082-7.017 3.028-10.8 6.139-4.236 2.629-6.037 2.658-11.392 7.476a76.981 76.981 0 0 0 5.623 20.739 127.531 127.531 0 0 0 14.568 25.935h70.045a130.676 130.676 0 0 0 12.806-24.018 94.554 94.554 0 0 0 6.085-21.361 99.825 99.825 0 0 1 -9.652-6.039c-3.323-2.253-10.578-7.514-14.667-7.239z" fill="#13bf6d"></path><path d="m393.978 217.674v-151.074a6.59 6.59 0 0 0 -6.556-6.556h-20.487v169.287a13.433 13.433 0 0 0 5.421 1.748c3.229.083 7.017-3.028 10.8-6.139 3.444-2.825 6.879-5.65 10.822-7.266z" fill="#808080"></path><path d="m303.26 468.251c18.068 10.432 42.711 15.663 67.442 15.674s49.384-5.2 67.467-15.636c9.405-5.431 16.969-12.258 21.709-20.468 7.286-12.619 4.8-35.241-3.651-59.4-8.832-25.238-24.161-51.723-41.882-70.43-55.9.327-62.265.12-85.737.12-18.079 18.46-36.148 47.2-44.942 71.667-5.878 16.348-11.719 41.365-2.087 58.047 4.834 8.371 13.422 15.661 21.681 20.43zm64.375-129.551a58.219 58.219 0 1 1 -41.165 17.052 58.036 58.036 0 0 1 41.165-17.052z" fill="#13bf6d"></path><path d="m240.54 452.747h31.226a52.171 52.171 0 0 1 -6.071-22.06h-25.155z" fill="#808080"></path><path d="m85.86 430.687v15.5a6.588 6.588 0 0 0 6.555 6.555h4.891v-22.06z" fill="#808080"></path><path d="m285.558 358.981h-45.018v60.719h25.212a127.836 127.836 0 0 1 7.608-33.614 201.07 201.07 0 0 1 12.198-27.105z" fill="#fff"></path><path d="m54.2 73.908h25.316a6.588 6.588 0 0 0 6.556-6.556v-30.927z" fill="#808080"></path><path d="m412.385 296.919h-84.192a5.1 5.1 0 0 0 0 10.195h84.192a5.1 5.1 0 0 0 0-10.195z" fill="#139141"></path></g><path d="m130.058 329.035h76.088v27.956h-76.088z" fill="#a6e1f2"></path><path d="m245.419 98.211a61.571 61.571 0 1 0 18.033 43.537 61.377 61.377 0 0 0 -18.033-43.537zm-56.019 75.533a5.483 5.483 0 0 1 -9.49-5.5l34.467-59.7a5.483 5.483 0 1 1 9.489 5.5zm32.086-28.725a16.34 16.34 0 1 1 -11.551 4.786 16.286 16.286 0 0 1 11.551-4.786zm3.78 12.557a5.35 5.35 0 1 1 -3.78-1.564 5.328 5.328 0 0 1 3.78 1.564zm-42.981-51.776a16.339 16.339 0 1 1 -11.552 4.786 16.284 16.284 0 0 1 11.552-4.786zm3.78 12.557a5.347 5.347 0 1 1 -3.78-1.565 5.331 5.331 0 0 1 3.78 1.567z" fill="#13bf6d" fill-rule="evenodd"></path><path d="m401.029 363.519a47.228 47.228 0 1 0 13.831 33.394 47.082 47.082 0 0 0 -13.831-33.394zm-27.9 62.646v2.8a5.5 5.5 0 1 1 -10.992 0v-2.8c-8.115-2.145-13.371-8.4-13.371-16.955a5.5 5.5 0 0 1 10.993 0 6.223 6.223 0 0 0 4.294 6.062 10.807 10.807 0 0 0 7.159 0 6.223 6.223 0 0 0 4.3-6.062c0-4.991-4.531-5.98-9.056-6.967-8.848-1.931-17.685-3.859-17.685-17.628 0-8.551 5.256-14.81 13.371-16.954v-2.8a5.5 5.5 0 1 1 10.992 0v2.8c8.114 2.144 13.371 8.4 13.371 16.954a5.5 5.5 0 1 1 -10.993 0 6.221 6.221 0 0 0 -4.3-6.061 10.78 10.78 0 0 0 -7.159 0 6.222 6.222 0 0 0 -4.294 6.061c0 4.927 4.5 5.91 9.01 6.893 8.86 1.933 17.731 3.869 17.731 17.7 0 8.554-5.255 14.812-13.369 16.957z" fill="#f0cb48" fill-rule="evenodd"></path></svg>