<svg xmlns="http://www.w3.org/2000/svg" width="1920" height="40" viewBox="0 0 1920 40" fill="none"><path d="M24 17.0375C15.6 14.6375 4.5 14.3708 0 14.5375V39.5375H1919.5V15.5375C1917.67 19.0375 1901 22.9787 1888.5 20.0375C1868.1 15.2375 1852.67 14.0375 1847.5 14.0375C1823.5 13.5375 1814 27.5375 1790.5 27.5375C1772.47 27.5375 1765.38 21.8524 1760.4 17.8607L1760 17.5375C1755 13.5375 1746.5 1.03748 1722.5 1.03748C1698.5 1.03748 1687 8.53748 1678 16.5375C1669 24.5375 1642.5 32.5375 1626 25.5375C1597.5 12.5375 1566 14.5375 1552.5 16.5375C1539 18.5375 1511 37.0375 1489 36.5375C1467 36.0375 1452.5 24.0375 1444 19.5375C1435.5 15.0375 1416.5 6.03748 1398.5 5.53748C1380.5 5.03748 1364 17.0375 1348 17.5375C1332 18.0375 1332.5 12.0375 1312 12.0375C1291.5 12.0375 1281 25.5375 1263.5 20.0375C1235 11.0375 1221 17.0375 1210.5 22.0375C1200 27.0375 1173 33.0375 1161 22.0375C1149 11.0375 1135.5 0.5375 1121 0.0375C1106.5 -0.4625 1088.5 4.0375 1078.5 13.5375C1068.5 23.0375 1040 33.0375 1020.5 24.0375C1001 15.0375 952 8.5375 926.5 24.0375C901 39.5375 877 42.0375 846.5 24.0375C816 6.0375 801.5 6.0375 795 6.0375C788.5 6.0375 779.5 6.5375 767.5 12.0375C757.9 16.4375 747.167 17.2042 743 17.0375C725 17.0375 720.5 12.0375 708 12.0375C702.5 12.0375 696 14.0375 688 17.0375C680 20.0375 662.5 21.5375 653.5 19.0375C644.5 16.5375 631.5 13.5375 619.5 14.0375C607.5 14.5375 595 18.0375 588.5 21.5375C582 25.0375 573 28.5375 560.5 28.5375C548 28.5375 537 23.0375 528.5 15.0375C520 7.0375 509 1.0375 489.5 1.0375C470 1.0375 440.5 23.0375 436 25.0375C431.5 27.0375 413 31.0375 397.5 25.0375C382 19.0375 362.5 14.5375 344.5 14.5375C326.5 14.5375 307.5 23.0375 299.5 26.5375C291.5 30.0375 273.5 37.0375 262.5 37.0375C251.5 37.0375 235 32.0375 228 26.5375C221 21.0375 201.5 12.0375 190 9.03748C178.5 6.03746 167.5 4.53748 156.5 8.03748C145.5 11.5375 126.5 17.0375 115.5 17.0375C104.5 17.0375 98.5 12.5375 86 12.0375C73.5 11.5375 60.5 17.0375 53 19.5375C45.5 22.0375 34.5 20.0375 24 17.0375Z" fill="#fff"></path></svg>