<svg xmlns="http://www.w3.org/2000/svg" width="1920" height="41" viewBox="0 0 1920 41" fill="none"><path d="M24.0215 24.3124C15.6238 26.7204 4.5241 26.9977 0.0239419 26.8353L3.82005e-05 1.83532L1919.5 -6.62904e-06L1919.52 24C1917.69 20.5017 1901.01 16.5765 1888.52 19.5296C1868.12 24.3491 1852.69 25.5639 1847.52 25.5688C1823.52 26.0918 1814.01 12.1009 1790.51 12.1233C1772.48 12.1406 1765.4 17.8324 1760.42 21.8288L1760.02 22.1525C1755.02 26.1573 1746.54 38.6654 1722.54 38.6883C1698.54 38.7113 1687.03 31.2223 1678.02 23.2309C1669.01 15.2395 1642.51 7.26484 1626.01 14.2806C1597.53 27.3079 1566.02 25.338 1552.52 23.3509C1539.02 21.3638 1511 2.89058 1489 3.41161C1467 3.93265 1452.51 15.9465 1444.02 20.4546C1435.52 24.9628 1416.53 33.9809 1398.53 34.4981C1380.53 35.0153 1364.02 23.0311 1348.02 22.5464C1332.02 22.0617 1332.53 28.0612 1312.03 28.0808C1291.53 28.1004 1281.01 14.6105 1263.52 20.1272C1235.03 29.1545 1221.02 23.1679 1210.52 18.1779C1200.01 13.1879 1173.01 7.21375 1161.02 18.2252C1149.03 29.2367 1135.54 39.7496 1121.04 40.2634C1106.54 40.7773 1088.53 36.2945 1078.52 26.8041C1068.52 17.3136 1040.01 7.3409 1020.51 16.3595C1001.02 25.3782 952.029 31.925 926.514 16.4494C901 0.973805 876.997 -1.50325 846.514 16.5259C816.032 34.5551 801.532 34.5689 795.032 34.5751C788.532 34.5814 779.531 34.09 767.526 28.6014C757.922 24.2106 747.188 23.4542 743.021 23.6249C725.021 23.6421 720.526 28.6464 708.026 28.6583C702.526 28.6636 696.024 26.6698 688.021 23.6775C680.018 20.6851 662.517 19.2018 653.519 21.7104C644.522 24.219 631.525 27.2315 619.524 26.7429C607.524 26.2544 595.02 22.7664 588.517 19.2726C582.014 15.7788 573.01 12.2874 560.51 12.2994C548.01 12.3113 537.016 17.8218 528.523 25.83C520.031 33.8381 509.037 39.8486 489.537 39.8672C470.037 39.8859 440.516 17.9141 436.014 15.9184C431.512 13.9227 413.008 9.9404 397.514 15.9552C382.019 21.97 362.524 26.4887 344.524 26.5059C326.524 26.5231 307.516 18.0413 299.512 14.5489C291.509 11.0566 273.502 4.07379 262.502 4.0843C251.502 4.09482 235.007 9.11059 228.012 14.6173C221.018 20.124 201.526 29.1426 190.029 32.1536C178.532 35.1646 167.533 36.6751 156.53 33.1857C145.527 29.6962 126.521 24.2144 115.521 24.2249C104.522 24.2354 98.5258 28.7411 86.0263 29.2531C73.5268 29.765 60.5215 24.2775 53.0191 21.7846C45.5167 19.2918 34.5187 21.3023 24.0215 24.3124Z" fill="#fff"></path></svg>