<?xml version="1.0" standalone="no"?>
<!DOCTYPE svg PUBLIC "-//W3C//DTD SVG 20010904//EN"
 "http://www.w3.org/TR/2001/REC-SVG-20010904/DTD/svg10.dtd">
<svg version="1.0" xmlns="http://www.w3.org/2000/svg"
 width="1324.000000pt" height="573.000000pt" viewBox="0 0 1324.000000 573.000000"
 preserveAspectRatio="xMidYMid meet">

<g transform="translate(0.000000,573.000000) scale(0.100000,-0.100000)"
fill="#ffffff" stroke="none">
<path d="M3460 5724 c-134 -19 -250 -66 -318 -131 -69 -66 -77 -159 -24 -258
36 -65 81 -95 144 -95 57 0 80 10 128 56 84 80 204 110 490 124 699 35 929 54
990 83 19 9 26 21 28 49 4 46 -11 76 -44 88 -48 19 -228 51 -363 66 -133 14
-952 28 -1031 18z"/>
<path d="M5875 5651 c-102 -53 -126 -202 -42 -265 21 -15 93 -39 214 -70 680
-173 1283 -408 1849 -722 94 -52 163 -84 181 -84 43 0 78 41 78 92 0 52 -19
68 -255 227 -550 371 -1141 640 -1739 792 -206 52 -236 55 -286 30z"/>
<path d="M1390 5279 c-311 -105 -659 -221 -775 -256 -317 -97 -413 -140 -510
-225 -82 -72 -105 -112 -105 -180 0 -63 21 -117 68 -173 72 -87 179 -86 276 3
101 93 215 151 521 265 281 104 1162 500 1198 538 62 67 14 190 -83 214 -18 4
-193 -51 -590 -186z"/>
<path d="M8785 4228 c-61 -33 -92 -93 -80 -154 15 -80 178 -198 538 -388 243
-129 350 -192 542 -324 142 -97 383 -277 510 -381 91 -74 103 -81 143 -81 77
0 125 74 89 136 -17 29 -256 254 -425 400 -175 151 -615 493 -759 590 -236
160 -477 247 -558 202z"/>
<path d="M13065 2434 c-42 -22 -74 -53 -95 -94 -10 -19 -59 -168 -109 -330
-128 -419 -369 -1118 -469 -1364 -6 -15 -14 -2 -37 60 -210 585 -574 1156
-1006 1580 -122 120 -163 143 -232 130 -102 -19 -171 -131 -137 -221 6 -15 83
-102 173 -194 318 -327 549 -630 757 -991 64 -112 200 -379 200 -394 0 -7
-179 139 -574 468 -354 293 -605 486 -786 601 -167 106 -214 124 -315 125 -96
0 -162 -26 -214 -85 -52 -60 -65 -99 -65 -196 0 -101 25 -162 86 -212 58 -47
206 -72 273 -47 24 9 33 5 93 -49 37 -33 274 -217 527 -408 253 -192 530 -408
615 -482 290 -251 435 -331 595 -331 106 0 159 22 230 95 103 104 170 264 240
575 39 176 67 287 169 685 77 302 172 717 182 800 5 47 13 65 35 86 29 27 45
83 35 123 -3 14 -20 38 -37 55 -35 36 -84 41 -134 15z"/>
</g>
</svg>
